<?xml version="1.0" encoding="UTF-8"?>
<svg xmlns="http://www.w3.org/2000/svg" viewBox="0 0 1400 2400" font-family="'Noto Sans CJK SC', 'Microsoft YaHei', sans-serif">
  <style>
    .layer-bg { fill: #f8f9fa; stroke: #dee2e6; stroke-width: 1; }
    .layer-label { font-size: 20px; font-weight: bold; fill: #495057; }
    .entity { fill: #ffffff; stroke: #343a40; stroke-width: 2; rx: 6; }
    .entity-title { font-size: 14px; font-weight: bold; fill: #212529; }
    .entity-type { font-size: 11px; fill: #6c757d; font-style: italic; }
    .attr { font-size: 12px; fill: #495057; }
    .attr-key { font-weight: bold; }
    .relation-line { stroke: #868e96; stroke-width: 1.5; fill: none; }
    .relation-label { font-size: 10px; fill: #495057; background: white; }
    .layer-l1 { fill: #e3f2fd; }
    .layer-l2 { fill: #e8f5e9; }
    .layer-l3 { fill: #fff3e0; }
    .card-l1 { fill: #1976d2; }
    .card-l2 { fill: #388e3c; }
    .card-l3 { fill: #f57c00; }
    .legend-box { fill: #ffffff; stroke: #ced4da; stroke-width: 1; }
    .legend-title { font-size: 12px; font-weight: bold; fill: #212529; }
    .spec-link { stroke: #9c27b0; stroke-width: 2; stroke-dasharray: 5,3; }
    .override-link { stroke: #e91e63; stroke-width: 2; }
  </style>

  <!-- ===================== L1 ¡C!‹B ===================== -->
  <rect x="20" y="20" width="1360" height="620" class="layer-bg layer-l1" rx="8"/>
  <rect x="20" y="20" width="1360" height="40" class="card-l1" rx="8"/>
  <text x="40" y="48" class="layer-label" fill="white">L1 ¡C!‹B</text>

  <!-- ProductClassType -->
  <rect x="50" y="80" width="240" height="130" class="entity" rx="6"/>
  <rect x="50" y="80" width="240" height="30" fill="#1976d2" rx="6"/>
  <text x="170" y="100" text-anchor="middle" class="entity-title" fill="white">ProductClassType</text>
  <text x="65" y="125" class="entity-type">§Á{C!‹</text>
  <line x1="50" y1="130" x2="290" y2="130" stroke="#dee2e6"/>
  <text x="65" y="150" class="attr attr-key">code</text>
  <text x="65" y="168" class="attr">name</text>
  <text x="65" y="186" class="attr">domain</text>
  <text x="65" y="204" class="attr">modeling_policy</text>

  <!-- PartClassType -->
  <rect x="50" y="240" width="240" height="140" class="entity" rx="6"/>
  <rect x="50" y="240" width="240" height="30" fill="#1976d2" rx="6"/>
  <text x="170" y="260" text-anchor="middle" class="entity-title" fill="white">PartClassType</text>
  <text x="65" y="285" class="entity-type">èö{C!‹</text>
  <line x1="50" y1="290" x2="290" y2="290" stroke="#dee2e6"/>
  <text x="65" y="310" class="attr attr-key">code</text>
  <text x="65" y="328" class="attr">name</text>
  <text x="65" y="346" class="attr">part_kind</text>
  <text x="65" y="364" class="attr">selection_policy</text>
  <text x="65" y="382" class="attr">min/max_cardinality</text>

  <!-- SpecDefinition -->
  <rect x="380" y="100" width="260" height="160" class="entity" rx="6"/>
  <rect x="380" y="100" width="260" height="30" fill="#1976d2" rx="6"/>
  <text x="510" y="120" text-anchor="middle" class="entity-title" fill="white">SpecDefinition</text>
  <text x="395" y="145" class="entity-type">Ä<šI</text>
  <line x1="380" y1="150" x2="640" y2="150" stroke="#dee2e6"/>
  <text x="395" y="170" class="attr attr-key">code</text>
  <text x="395" y="188" class="attr">name</text>
  <text x="395" y="206" class="attr">data_type</text>
  <text x="395" y="224" class="attr">unit</text>
  <text x="395" y="242" class="attr">value_domain</text>
  <text x="395" y="260" class="attr">required</text>

  <!-- Parameter -->
  <rect x="380" y="290" width="260" height="150" class="entity" rx="6"/>
  <rect x="380" y="290" width="260" height="30" fill="#1976d2" rx="6"/>
  <text x="510" y="310" text-anchor="middle" class="entity-title" fill="white">Parameter</text>
  <text x="395" y="335" class="entity-type">ÂpšI</text>
  <line x1="380" y1="340" x2="640" y2="340" stroke="#dee2e6"/>
  <text x="395" y="360" class="attr attr-key">code</text>
  <text x="395" y="378" class="attr">name</text>
  <text x="395" y="396" class="attr">data_type / unit</text>
  <text x="395" y="414" class="attr">min / max / default</text>
  <text x="395" y="432" class="attr">assign_type</text>

  <!-- ProductInstanceType -->
  <rect x="780" y="100" width="220" height="120" class="entity" rx="6"/>
  <rect x="780" y="100" width="220" height="30" fill="#1976d2" rx="6"/>
  <text x="890" y="120" text-anchor="middle" class="entity-title" fill="white">ProductInstanceType</text>
  <text x="795" y="145" class="entity-type">ï.§ÁC!‹</text>
  <line x1="780" y1="150" x2="1000" y2="150" stroke="#dee2e6"/>
  <text x="795" y="170" class="attr attr-key">code</text>
  <text x="795" y="188" class="attr">name / market</text>
  <text x="795" y="206" class="attr">status</text>

  <!-- L1 sû¿ -->
  <path d="M290 145 Q335 145 335 160 L335 240" class="relation-line" marker-end="url(#arrow)"/>
  <text x="300" y="195" class="relation-label">composedOf</text>

  <path d="M170 210 L170 240" class="relation-line"/>
  <text x="140" y="225" class="relation-label">hasSpec</text>
  <path d="M510 260 L510 290" class="relation-line"/>
  <text x="480" y="275" class="relation-label">hasSpec</text>

  <path d="M290 305 L335 305 L335 340" class="relation-line"/>
  <text x="300" y="320" class="relation-label">hasParameter</text>

  <path d="M640 180 L740 180 L740 140 L780 140" class="relation-line"/>
  <text x="700" y="172" class="relation-label">realizes</text>

  <defs>
    <marker id="arrow" markerWidth="10" markerHeight="7" refX="9" refY="3.5" orient="auto">
      <polygon points="0 0, 10 3.5, 0 7" fill="#868e96"/>
    </marker>
  </defs>

  <!-- L1 ş‹ô -->
  <rect x="1040" y="80" width="320" height="180" class="legend-box" rx="6"/>
  <text x="1060" y="105" class="legend-title">L1 C!‹sûô</text>
  <line x1="1060" y1="120" x2="1100" y2="120" class="relation-line"/>
  <text x="1110" y="125" class="attr">composedOf: §Á{1èö{Ä</text>
  <line x1="1060" y1="145" x2="1100" y2="145" class="relation-line"/>
  <text x="1110" y="150" class="attr">hasSpec: šIú	Ä<</text>
  <line x1="1060" y1="170" x2="1100" y2="170" class="relation-line"/>
  <text x="1110" y="175" class="attr">hasParameter: šIïMnÂp</text>
  <line x1="1060" y1="195" x2="1100" y2="195" class="relation-line"/>
  <text x="1110" y="200" class="attr">realizes: ï.§Á°§Á{</text>
  <text x="1060" y="230" class="attr" fill="#6c757d">C!‹šI"{‹/!"</text>
  <text x="1060" y="250" class="attr" fill="#6c757d">1IT¡ºXô¤</text>

  <!-- ===================== L2 ¡ùa‹B ===================== -->
  <rect x="20" y="660" width="1360" height="820" class="layer-bg layer-l2" rx="8"/>
  <rect x="20" y="660" width="1360" height="40" class="card-l2" rx="8"/>
  <text x="40" y="688" class="layer-label" fill="white">L2 ¡ùa‹B</text>

  <!-- ProductClass -->
  <rect x="50" y="720" width="240" height="150" class="entity" rx="6"/>
  <rect x="50" y="720" width="240" height="30" fill="#388e3c" rx="6"/>
  <text x="170" y="740" text-anchor="middle" class="entity-title" fill="white">ProductClass</text>
  <text x="65" y="765" class="entity-type">§Á{ò‹	</text>
  <line x1="50" y1="770" x2="290" y2="770" stroke="#dee2e6"/>
  <text x="65" y="790" class="attr attr-key">id / code</text>
  <text x="65" y="808" class="attr">name / version</text>
  <text x="65" y="826" class="attr">status</text>
  <text x="65" y="844" class="attr">effective_from/to</text>
  <text x="65" y="862" class="attr"> ê&H,Wµ</text>

  <!-- PartClass -->
  <rect x="50" y="900" width="240" height="140" class="entity" rx="6"/>
  <rect x="50" y="900" width="240" height="30" fill="#388e3c" rx="6"/>
  <text x="170" y="920" text-anchor="middle" class="entity-title" fill="white">PartClass</text>
  <text x="65" y="945" class="entity-type">èö{ò‹	</text>
  <line x1="50" y1="950" x2="290" y2="950" stroke="#dee2e6"/>
  <text x="65" y="970" class="attr attr-key">id / code</text>
  <text x="65" y="988" class="attr">product_class_id</text>
  <text x="65" y="1006" class="attr">selection_policy</text>
  <text x="65" y="1024" class="attr">min_qty / max_qty</text>
  <text x="65" y="1042" class="attr">multi_instance</text>

  <!-- SpecValue (}¹) -->
  <rect x="340" y="720" width="200" height="130" class="entity" rx="6"/>
  <rect x="340" y="720" width="200" height="30" fill="#9c27b0" rx="6"/>
  <text x="440" y="740" text-anchor="middle" class="entity-title" fill="white">SpecValue</text>
  <text x="355" y="765" class="entity-type">Ä<<}(‹
	</text>
  <line x1="340" y1="770" x2="540" y2="770" stroke="#dee2e6"/>
  <text x="355" y="790" class="attr attr-key">id</text>
  <text x="355" y="808" class="attr">owner_type / owner_id</text>
  <text x="355" y="826" class="attr">spec_code / value</text>
  <text x="355" y="844" class="attr">unit</text>

  <!-- Part -->
  <rect x="340" y="880" width="220" height="180" class="entity" rx="6"/>
  <rect x="340" y="880" width="220" height="30" fill="#388e3c" rx="6"/>
  <text x="450" y="900" text-anchor="middle" class="entity-title" fill="white">Part</text>
  <text x="355" y="925" class="entity-type">èöPartClass‹	</text>
  <line x1="340" y1="930" x2="560" y2="930" stroke="#dee2e6"/>
  <text x="355" y="950" class="attr attr-key">id / code</text>
  <text x="355" y="968" class="attr">part_class_id</text>
  <text x="355" y="986" class="attr">name / status</text>
  <text x="355" y="1004" class="attr">price</text>
  <text x="355" y="1022" class="attr attr-key">SpecValue 1:N</text>
  <text x="355" y="1042" class="attr" fill="#6c757d"> Part	ú	Ä<<</text>
  <text x="355" y="1058" class="attr" fill="#6c757d"> ProductClass_	Ä<<</text>

  <!-- ProductInstance -->
  <rect x="700" y="720" width="240" height="150" class="entity" rx="6"/>
  <rect x="700" y="720" width="240" height="30" fill="#388e3c" rx="6"/>
  <text x="820" y="740" text-anchor="middle" class="entity-title" fill="white">ProductInstance</text>
  <text x="715" y="765" class="entity-type">ï.§Á‹S1110/S22	</text>
  <line x1="700" y1="770" x2="940" y2="770" stroke="#dee2e6"/>
  <text x="715" y="790" class="attr attr-key">id / code / version</text>
  <text x="715" y="808" class="attr">name / market</text>
  <text x="715" y="826" class="attr">status</text>
  <text x="715" y="844" class="attr"> realizes ProductClass</text>

  <!-- SpecOverride -->
  <rect x="700" y="900" width="240" height="130" class="entity" rx="6"/>
  <rect x="700" y="900" width="240" height="30" fill="#e91e63" rx="6"/>
  <text x="820" y="920" text-anchor="middle" class="entity-title" fill="white">SpecOverride</text>
  <text x="715" y="945" class="entity-type">Ä<†Öøùú¿„î	</text>
  <line x1="700" y1="950" x2="940" y2="950" stroke="#dee2e6"/>
  <text x="715" y="970" class="attr attr-key">id</text>
  <text x="715" y="988" class="attr">product_instance_id</text>
  <text x="715" y="1006" class="attr">spec_code</text>
  <text x="715" y="1024" class="attr">override_value</text>

  <!-- offersPart ¹^'ô -->
  <rect x="990" y="720" width="370" height="310" class="legend-box" rx="6"/>
  <text x="1010" y="745" class="legend-title">ProductInstance ’ Part (offersPart)</text>
  <text x="1010" y="770" class="attr">Áj¹:&å^'</text>
  <text x="1010" y="795" class="attr">" enabled: true/false  /(/(</text>
  <text x="1010" y="815" class="attr">" defaultSelected: Ø¤	-</text>
  <text x="1010" y="835" class="attr">" minQty / maxQty: pÏ¹L</text>
  <text x="1010" y="855" class="attr">" fixed: /&úšï9</text>

  <line x1="1010" y1="880" x2="1340" y2="880" stroke="#dee2e6"/>

  <text x="1010" y="905" class="legend-title">SpecDefinition ’ SpecValue ’ SpecOverride</text>
  <text x="1010" y="930" class="attr spec-link" stroke="#9c27b0"> SpecDefinition: Ä<šI</text>
  <text x="1010" y="955" class="attr" fill="#6c757d">  šI code/data_type/unit/value_domain</text>
  <text x="1010" y="980" class="attr" fill="#e91e63"> SpecOverride: Ä<†Ö</text>
  <text x="1010" y="1005" class="attr" fill="#6c757d">  ProductInstance †Öú¿ SpecValue</text>
  <text x="1010" y="1030" fill="#6c757d" class="attr">‹: S22 :6 FormFactor=4U</text>
  <text x="1010" y="1055" fill="#6c757d" class="attr">    †Öú¿ SERVER_X86 „ FormFactor=2U</text>

  <!-- L2 sû¿ -->
  <!-- ProductClass ’ PartClass -->
  <path d="M170 870 L170 900" class="relation-line"/>
  <text x="140" y="890" class="relation-label">contains 1:N</text>

  <!-- PartClass ’ Part -->
  <path d="M170 1040 L340 970" class="relation-line"/>
  <text x="200" y="1030" class="relation-label">candidate 1:N</text>

  <!-- Part ’ SpecValue -->
  <path d="M340 970 L340 850" class="spec-link" marker-end="url(#arrow-purple)"/>
  <text x="300" y="920" class="relation-label" fill="#9c27b0">hasSpecValue 1:N</text>

  <!-- ProductClass ’ SpecValue -->
  <path d="M290 770 L340 770" class="spec-link"/>
  <text x="295" y="760" class="relation-label" fill="#9c27b0">hasSpecValue 1:N</text>

  <!-- SpecDefinition ’ SpecValue (Z¿) -->
  <path d="M540 800 Q590 800 590 780 Q590 760 590 770" class="spec-link" stroke-dasharray="5,3"/>
  <text x="560" y="790" class="relation-label" fill="#9c27b0" font-size="9">definedBy</text>

  <!-- ProductInstance ’ ProductClass -->
  <path d="M700 795 L480 795" class="relation-line"/>
  <text x="550" y="785" class="relation-label">realizes</text>

  <!-- ProductInstance ’ SpecOverride -->
  <path d="M820 870 L820 900" class="override-link"/>
  <text x="830" y="890" class="relation-label" fill="#e91e63">overrides 1:N</text>

  <!-- SpecOverride ’ SpecValue -->
  <path d="M700 965 L540 850" class="override-link" stroke-dasharray="4,2"/>
  <text x="580" y="920" class="relation-label" fill="#e91e63" font-size="9">†Öş</text>

  <!-- ProductInstance ’ Part (offersPart) -->
  <path d="M940 795 L560 920" class="relation-line"/>
  <text x="800" y="870" class="relation-label">offersPart N:M</text>

  <defs>
    <marker id="arrow-purple" markerWidth="10" markerHeight="7" refX="9" refY="3.5" orient="auto">
      <polygon points="0 0, 10 3.5, 0 7" fill="#9c27b0"/>
    </marker>
  </defs>

  <!-- ===================== L3 MnĞL‹B ===================== -->
  <rect x="20" y="1500" width="1360" height="400" class="layer-bg layer-l3" rx="8"/>
  <rect x="20" y="1500" width="1360" height="40" class="card-l3" rx="8"/>
  <text x="40" y="1528" class="layer-label" fill="white">L3 MnĞL‹B</text>

  <!-- Configuration -->
  <rect x="100" y="1570" width="280" height="180" class="entity" rx="6"/>
  <rect x="100" y="1570" width="280" height="30" fill="#f57c00" rx="6"/>
  <text x="240" y="1590" text-anchor="middle" class="entity-title" fill="white">Configuration</text>
  <text x="115" y="1615" class="entity-type">Mn¹H !¢7Mnİ	</text>
  <line x1="100" y1="1620" x2="380" y2="1620" stroke="#dee2e6"/>
  <text x="115" y="1640" class="attr attr-key">id</text>
  <text x="115" y="1658" class="attr">product_instance_id</text>
  <text x="115" y="1676" class="attr">model_snapshot</text>
  <text x="115" y="1694" class="attr">status</text>
  <text x="115" y="1712" class="attr">customer_context</text>

  <!-- ConfiguredPart -->
  <rect x="500" y="1570" width="280" height="180" class="entity" rx="6"/>
  <rect x="500" y="1570" width="280" height="30" fill="#f57c00" rx="6"/>
  <text x="640" y="1590" text-anchor="middle" class="entity-title" fill="white">ConfiguredPart</text>
  <text x="515" y="1615" class="entity-type">ò	èöPartInst•q	</text>
  <line x1="500" y1="1620" x2="780" y2="1620" stroke="#dee2e6"/>
  <text x="515" y="1640" class="attr attr-key">configuration_id</text>
  <text x="515" y="1658" class="attr">part_id / part_code</text>
  <text x="515" y="1676" class="attr">instance_no / quantity</text>
  <text x="515" y="1694" class="attr">selected / hidden</text>
  <text x="515" y="1712" class="attr">reason</text>

  <!-- ConfiguredValue -->
  <rect x="100" y="1790" width="280" height="130" class="entity" rx="6"/>
  <rect x="100" y="1790" width="280" height="30" fill="#f57c00" rx="6"/>
  <text x="240" y="1810" text-anchor="middle" class="entity-title" fill="white">ConfiguredValue</text>
  <text x="115" y="1835" class="entity-type">ò	Âp<(7“e„Parameter<	</text>
  <line x1="100" y1="1840" x2="380" y2="1840" stroke="#dee2e6"/>
  <text x="115" y="1860" class="attr attr-key">configuration_id</text>
  <text x="115" y="1878" class="attr">parameter_code / part_class</text>
  <text x="115" y="1896" class="attr">value / filter / source</text>

  <!-- Artifacts -->
  <rect x="500" y="1790" width="280" height="130" class="entity" rx="6"/>
  <rect x="500" y="1790" width="280" height="30" fill="#f57c00" rx="6"/>
  <text x="640" y="1810" text-anchor="middle" class="entity-title" fill="white">ConfigurationArtifact</text>
  <text x="515" y="1835" class="entity-type">8§iBOM/¥÷/¤ØÄ<	</text>
  <line x1="500" y1="1840" x2="780" y2="1840" stroke="#dee2e6"/>
  <text x="515" y="1860" class="attr">bom (i™U)</text>
  <text x="515" y="1878" class="attr">price (¥÷)</text>
  <text x="515" y="1896" class="attr">delivery_spec (¤ØÄ<)</text>

  <!-- L3 sû¿ -->
  <path d="M380 1660 L500 1660" class="relation-line"/>
  <text x="420" y="1650" class="relation-label">selects 1:N</text>

  <path d="M240 1750 L240 1790" class="relation-line"/>
  <text x="200" y="1770" class="relation-label">input 1:N</text>

  <path d="M640 1750 L640 1790" class="relation-line"/>
  <text x="660" y="1770" class="relation-label">produces</text>

  <!-- ===================== B§ôsû ===================== -->
  <!-- L1 ’ L2 è -->
  <path d="M200 650 L200 720" stroke="#495057" stroke-width="2" stroke-dasharray="8,4"/>
  <text x="210" y="690" fill="#495057" font-size="11">instantiate</text>

  <!-- L2 ’ L3 è -->
  <path d="M900 870 L900 1500" stroke="#495057" stroke-width="2" stroke-dasharray="8,4"/>
  <text x="910" y="1180" fill="#495057" font-size="11">configure</text>

  <!-- ===================== ş‹ ===================== -->
  <rect x="1020" y="1570" width="340" height="350" class="legend-box" rx="6"/>
  <text x="1040" y="1595" class="legend-title">œrsûş‹</text>
  <line x1="1040" y1="1610" x2="1080" y2="1610" stroke="#343a40" stroke-width="2"/>
  <text x="1090" y="1615" class="attr">1:1 sû</text>
  <line x1="1040" y1="1635" x2="1080" y2="1635" stroke="#343a40" stroke-width="2"/>
  <polygon points="1080,1632 1088,1635 1080,1638" fill="#343a40"/>
  <text x="1090" y="1640" class="attr">N:1 / 1:N / N:M sû</text>
  <line x1="1040" y1="1660" x2="1080" y2="1660" stroke="#495057" stroke-width="2" stroke-dasharray="8,4"/>
  <text x="1090" y="1665" class="attr">B§lb (instantiate/configure)</text>

  <line x1="1040" y1="1690" x2="1080" y2="1690" stroke="#9c27b0" stroke-width="2" stroke-dasharray="5,3"/>
  <text x="1090" y="1695" class="attr" fill="#9c27b0">SpecDefinition ’ SpecValue şï</text>

  <line x1="1040" y1="1715" x2="1080" y2="1715" stroke="#e91e63" stroke-width="2"/>
  <text x="1090" y="1720" class="attr" fill="#e91e63">SpecOverride †Öşï</text>

  <line x1="1040" y1="1745" x2="1340" y2="1745" stroke="#dee2e6"/>

  <rect x="1040" y="1760" width="30" height="20" fill="#1976d2" rx="3"/>
  <text x="1080" y="1775" class="attr">L1 ¡C!‹</text>
  <rect x="1040" y="1790" width="30" height="20" fill="#388e3c" rx="3"/>
  <text x="1080" y="1805" class="attr">L2 ¡ùa‹</text>
  <rect x="1040" y="1820" width="30" height="20" fill="#f57c00" rx="3"/>
  <text x="1080" y="1835" class="attr">L3 MnĞL‹</text>
  <rect x="1040" y="1850" width="30" height="20" fill="#9c27b0" rx="3"/>
  <text x="1080" y="1865" class="attr">Ä<< SpecValue</text>
  <rect x="1040" y="1880" width="30" height="20" fill="#e91e63" rx="3"/>
  <text x="1080" y="1895" class="attr">Ä<†Ö SpecOverride</text>

  <!-- ===================== u ===================== -->
  <text x="700" y="2350" text-anchor="middle" font-size="12" fill="#6c757d">
    B§ÁMnhpn!‹ ER ş | ş 1.5 | v1.2
  </text>
</svg>
